# xmcd
#
# Track frame offsets:
#	150
#	12120
#	22323
#	33337
#	44542
#	58237
#	70252
#	81343
#	93544
#	103521
#	115071
#	125244
#	135867
#	148435
#	161121
#	173901
#
# Disc length: 2504 seconds
#
# Revision: 0
# Processed by: cddbd v1.5.1PL2 Copyright (c) Steve Scherf et al.
# Submitted via: EasyCDDAExtractor 9.0.0.1
#
DISCID=eb09c610
DTITLE=Hank Snow - The Great Hank Snow D2
DYEAR=1900
DGENRE=Country
TTITLE0=Married By The Bible Divorced By The Law
TTITLE1=Pray
TTITLE2=These Things Shall Pass
TTITLE3=I'm Movin' on to Glory
TTITLE4=My Mother
TTITLE5=The Hightest Bidder
TTITLE6=Music Makin' Mama from Mephis
TTITLE7=Bluebird Island
TTITLE8=Down The trail of Achin' Hearts
TTITLE9=Hobo Bills Last Ride
TTITLE10=The Wreck of The Old 97
TTITLE11=Unwanted Sign Upon Your Heart
TTITLE12=The Golden Rocket
TTITLE13=The Rhumba Boogie
TTITLE14=I'm Movin on
TTITLE15=I Cried But My Tears Were Too Late
EXTD=
EXTT0=
EXTT1=
EXTT2=
EXTT3=
EXTT4=
EXTT5=
EXTT6=
EXTT7=
EXTT8=
EXTT9=
EXTT10=
EXTT11=
EXTT12=
EXTT13=
EXTT14=
EXTT15=
PLAYORDER=
